                            <svg
                                xmlns="http://www.w3.org/2000/svg"
                                viewBox="156.9746835443037 218.22491686857296 91.34177215189882 82.01428995253167"
                                width="87.34"
                                height="77.01"
                            >
                                <defs>
                                    <path
                                        d="M245.32 284.72L245.31 285.24L245.27 285.75L245.22 286.25L245.15 286.75L245.06 287.24L244.95 287.73L244.82 288.21L244.68 288.68L244.51 289.14L244.33 289.59L244.13 290.04L243.92 290.47L243.69 290.9L243.44 291.32L243.18 291.72L242.9 292.11L242.61 292.5L242.3 292.87L241.98 293.23L241.65 293.57L241.3 293.91L240.95 294.23L240.57 294.53L240.19 294.82L239.8 295.1L239.39 295.36L238.98 295.61L238.55 295.84L238.12 296.06L237.67 296.26L237.22 296.44L236.76 296.6L236.29 296.75L235.81 296.88L235.32 296.98L234.83 297.08L234.33 297.15L233.83 297.2L233.32 297.23L232.8 297.24L170.49 297.24L169.98 297.23L169.46 297.2L168.96 297.15L168.46 297.08L167.97 296.98L167.48 296.88L167.01 296.75L166.54 296.6L166.07 296.44L165.62 296.26L165.17 296.06L164.74 295.84L164.31 295.61L163.9 295.36L163.49 295.1L163.1 294.82L162.72 294.53L162.35 294.23L161.99 293.91L161.64 293.57L161.31 293.23L160.99 292.87L160.68 292.5L160.39 292.11L160.11 291.72L159.85 291.32L159.6 290.9L159.37 290.47L159.16 290.04L158.96 289.59L158.78 289.14L158.61 288.68L158.47 288.21L158.34 287.73L158.23 287.24L158.14 286.75L158.07 286.25L158.02 285.75L157.99 285.24L157.97 284.72L157.97 233.82L162.28 229.52L167.36 229.52L167.36 282.6L167.36 282.8L167.37 283L167.39 283.2L167.42 283.4L167.46 283.59L167.5 283.78L167.55 283.97L167.61 284.15L167.67 284.33L167.74 284.51L167.82 284.69L167.9 284.86L167.99 285.02L168.09 285.19L168.19 285.34L168.3 285.5L168.42 285.65L168.54 285.79L168.66 285.93L168.79 286.07L168.93 286.2L169.07 286.33L169.21 286.45L169.36 286.56L169.52 286.67L169.68 286.77L169.84 286.87L170.01 286.96L170.18 287.04L170.35 287.12L170.53 287.19L170.71 287.26L170.89 287.31L171.08 287.36L171.27 287.41L171.46 287.44L171.66 287.47L171.86 287.49L172.06 287.5L172.26 287.51L231.03 287.51L231.23 287.5L231.43 287.49L231.63 287.47L231.83 287.44L232.02 287.41L232.21 287.36L232.4 287.31L232.58 287.26L232.76 287.19L232.94 287.12L233.11 287.04L233.28 286.96L233.45 286.87L233.61 286.77L233.77 286.67L233.93 286.56L234.08 286.45L234.22 286.33L234.36 286.2L234.5 286.07L234.63 285.93L234.75 285.79L234.87 285.65L234.99 285.5L235.1 285.34L235.2 285.19L235.3 285.02L235.39 284.86L235.47 284.69L235.55 284.51L235.62 284.33L235.68 284.15L235.74 283.97L235.79 283.78L235.83 283.59L235.87 283.4L235.9 283.2L235.92 283L235.93 282.8L235.93 282.6L235.93 229.52L240.95 229.52L245.32 233.89L245.32 284.72Z"
                                        id="g5FnEX8saG"
                                    ></path>
                                    <path
                                        d="M231.03 220.22C233.74 220.22 235.93 222.42 235.93 225.13C235.93 237.86 235.93 271.16 235.93 283.9C235.93 286.61 233.74 288.8 231.03 288.8C218.3 288.8 184.99 288.8 172.26 288.8C169.55 288.8 167.36 286.61 167.36 283.9C167.36 271.16 167.36 237.86 167.36 225.13C167.36 222.42 169.55 220.22 172.26 220.22C184.99 220.22 218.3 220.22 231.03 220.22Z"
                                        id="c1qSP96f17"
                                    ></path>
                                </defs>
                                <g>
                                    <g>
                                        <use
                                            xlinkHref="#g5FnEX8saG"
                                            opacity={1}
                                            fill="#3e515d"
                                            fillOpacity={1}
                                        ></use>
                                    </g>
                                    <g>
                                        <use
                                            xlinkHref="#c1qSP96f17"
                                            opacity={1}
                                            fill="#3e515d"
                                            fillOpacity={1}
                                        ></use>
                                        <g>
                                            <use
                                                xlinkHref="#c1qSP96f17"
                                                opacity={1}
                                                fillOpacity={0}
                                                stroke="#ffffff"
                                                strokeWidth={4}
                                                strokeOpacity={1}
                                            ></use>
                                        </g>
                                    </g>
                                </g>
                            </svg>